<svg width="167" height="35" viewBox="0 0 167 35" fill="none" xmlns="http://www.w3.org/2000/svg">
<path d="M35.016 28V8.316H38.824V28H35.016ZM47.364 28V8.316H51.172V28H47.364ZM37.424 19.516V16.156H48.428V19.516H37.424ZM61.1597 28.28C59.797 28.28 58.565 27.972 57.4637 27.356C56.381 26.7213 55.513 25.872 54.8597 24.808C54.225 23.7253 53.9077 22.5213 53.9077 21.196C53.9077 19.8707 54.225 18.6853 54.8597 17.64C55.4944 16.576 56.3624 15.736 57.4637 15.12C58.565 14.4853 59.7877 14.168 61.1317 14.168C62.513 14.168 63.745 14.4853 64.8277 15.12C65.929 15.736 66.797 16.576 67.4317 17.64C68.0664 18.6853 68.3837 19.8707 68.3837 21.196C68.3837 22.5213 68.0664 23.7253 67.4317 24.808C66.797 25.872 65.929 26.7213 64.8277 27.356C63.745 27.972 62.5224 28.28 61.1597 28.28ZM61.1317 24.864C61.8224 24.864 62.429 24.7147 62.9517 24.416C63.493 24.0987 63.9037 23.6693 64.1837 23.128C64.4824 22.568 64.6317 21.9333 64.6317 21.224C64.6317 20.5147 64.4824 19.8893 64.1837 19.348C63.885 18.8067 63.4744 18.3867 62.9517 18.088C62.429 17.7707 61.8224 17.612 61.1317 17.612C60.4597 17.612 59.8624 17.7707 59.3397 18.088C58.817 18.3867 58.4064 18.8067 58.1077 19.348C57.809 19.8893 57.6597 20.5147 57.6597 21.224C57.6597 21.9333 57.809 22.568 58.1077 23.128C58.4064 23.6693 58.817 24.0987 59.3397 24.416C59.8624 24.7147 60.4597 24.864 61.1317 24.864ZM70.7451 28V14.476H74.4131V28H70.7451ZM79.5651 28V20.02C79.5651 19.236 79.3131 18.6293 78.8091 18.2C78.3238 17.752 77.7171 17.528 76.9891 17.528C76.5038 17.528 76.0651 17.6307 75.6731 17.836C75.2811 18.0227 74.9731 18.3027 74.7491 18.676C74.5251 19.0493 74.4131 19.4973 74.4131 20.02L72.9851 19.32C72.9851 18.2747 73.2091 17.3693 73.6571 16.604C74.1238 15.8387 74.7491 15.2507 75.5331 14.84C76.3171 14.4107 77.2038 14.196 78.1931 14.196C79.1264 14.196 79.9758 14.4107 80.7411 14.84C81.5064 15.2507 82.1131 15.8387 82.5611 16.604C83.0091 17.3507 83.2331 18.256 83.2331 19.32V28H79.5651ZM88.3851 28V20.02C88.3851 19.236 88.1331 18.6293 87.6291 18.2C87.1438 17.752 86.5371 17.528 85.8091 17.528C85.3424 17.528 84.9038 17.6307 84.4931 17.836C84.1011 18.0227 83.7931 18.3027 83.5691 18.676C83.3451 19.0493 83.2331 19.4973 83.2331 20.02L81.1331 19.516C81.2078 18.4333 81.4971 17.5 82.0011 16.716C82.5051 15.9133 83.1678 15.2973 83.9891 14.868C84.8104 14.42 85.7251 14.196 86.7331 14.196C87.7411 14.196 88.6464 14.4107 89.4491 14.84C90.2518 15.2507 90.8864 15.848 91.3531 16.632C91.8198 17.416 92.0531 18.3493 92.0531 19.432V28H88.3851ZM101.494 28.28C100.076 28.28 98.8157 27.9813 97.7143 27.384C96.613 26.768 95.7357 25.928 95.0823 24.864C94.4477 23.8 94.1303 22.5867 94.1303 21.224C94.1303 19.88 94.4383 18.6853 95.0543 17.64C95.689 16.576 96.5477 15.736 97.6303 15.12C98.713 14.4853 99.917 14.168 101.242 14.168C102.549 14.168 103.697 14.4667 104.686 15.064C105.694 15.6427 106.478 16.4453 107.038 17.472C107.617 18.48 107.906 19.628 107.906 20.916C107.906 21.1587 107.888 21.4107 107.85 21.672C107.832 21.9147 107.785 22.1947 107.71 22.512L96.3423 22.54V19.796L106.002 19.768L104.518 20.916C104.481 20.1133 104.332 19.4413 104.07 18.9C103.828 18.3587 103.464 17.948 102.978 17.668C102.512 17.3693 101.933 17.22 101.242 17.22C100.514 17.22 99.8797 17.388 99.3383 17.724C98.797 18.0413 98.377 18.4987 98.0783 19.096C97.7983 19.6747 97.6583 20.3653 97.6583 21.168C97.6583 21.9893 97.8077 22.708 98.1063 23.324C98.4237 23.9213 98.8717 24.388 99.4503 24.724C100.029 25.0413 100.701 25.2 101.466 25.2C102.157 25.2 102.782 25.088 103.342 24.864C103.902 24.6213 104.388 24.2667 104.798 23.8L106.954 25.956C106.301 26.7213 105.498 27.3 104.546 27.692C103.613 28.084 102.596 28.28 101.494 28.28ZM116.279 28.28C114.692 28.28 113.329 28.0093 112.191 27.468C111.071 26.9267 110.053 26.1147 109.139 25.032L111.659 22.512C112.237 23.2773 112.909 23.8747 113.675 24.304C114.44 24.7147 115.373 24.92 116.475 24.92C117.464 24.92 118.248 24.724 118.827 24.332C119.424 23.94 119.723 23.3987 119.723 22.708C119.723 22.1107 119.555 21.6253 119.219 21.252C118.883 20.8787 118.435 20.5613 117.875 20.3C117.333 20.0387 116.727 19.8053 116.055 19.6C115.401 19.376 114.739 19.124 114.067 18.844C113.413 18.564 112.807 18.2187 112.247 17.808C111.705 17.3787 111.267 16.8373 110.931 16.184C110.595 15.512 110.427 14.672 110.427 13.664C110.427 12.4693 110.716 11.452 111.295 10.612C111.873 9.772 112.667 9.128 113.675 8.68C114.683 8.232 115.821 8.008 117.091 8.008C118.435 8.008 119.648 8.26 120.731 8.764C121.813 9.268 122.7 9.92133 123.391 10.724L120.871 13.244C120.292 12.6093 119.695 12.1427 119.079 11.844C118.481 11.5453 117.8 11.396 117.035 11.396C116.157 11.396 115.467 11.564 114.963 11.9C114.459 12.236 114.207 12.7213 114.207 13.356C114.207 13.8973 114.375 14.336 114.711 14.672C115.047 15.008 115.485 15.2973 116.027 15.54C116.587 15.7827 117.193 16.016 117.847 16.24C118.519 16.464 119.181 16.716 119.835 16.996C120.507 17.276 121.113 17.64 121.655 18.088C122.215 18.536 122.663 19.1147 122.999 19.824C123.335 20.5147 123.503 21.3733 123.503 22.4C123.503 24.2293 122.859 25.6667 121.571 26.712C120.283 27.7573 118.519 28.28 116.279 28.28ZM128.104 28V8.848H131.772V28H128.104ZM124.94 17.696V14.476H134.936V17.696H124.94ZM142.327 28.28C141.095 28.28 139.984 27.972 138.995 27.356C138.006 26.74 137.231 25.9 136.671 24.836C136.111 23.772 135.831 22.5773 135.831 21.252C135.831 19.908 136.111 18.704 136.671 17.64C137.231 16.576 138.006 15.736 138.995 15.12C139.984 14.504 141.095 14.196 142.327 14.196C143.298 14.196 144.166 14.392 144.931 14.784C145.696 15.176 146.303 15.7267 146.751 16.436C147.218 17.1267 147.47 17.9107 147.507 18.788V23.66C147.47 24.556 147.218 25.3493 146.751 26.04C146.303 26.7307 145.696 27.2813 144.931 27.692C144.166 28.084 143.298 28.28 142.327 28.28ZM142.999 24.892C144.026 24.892 144.856 24.556 145.491 23.884C146.126 23.1933 146.443 22.3067 146.443 21.224C146.443 20.5147 146.294 19.8893 145.995 19.348C145.715 18.788 145.314 18.3587 144.791 18.06C144.287 17.7427 143.69 17.584 142.999 17.584C142.327 17.584 141.73 17.7427 141.207 18.06C140.703 18.3587 140.302 18.788 140.003 19.348C139.723 19.8893 139.583 20.5147 139.583 21.224C139.583 21.952 139.723 22.596 140.003 23.156C140.302 23.6973 140.703 24.1267 141.207 24.444C141.73 24.7427 142.327 24.892 142.999 24.892ZM146.247 28V24.36L146.835 21.056L146.247 17.808V14.476H149.887V28H146.247ZM157.388 28.112L151.732 14.476H155.708L159.46 24.892H158.116L162.008 14.476H166.012L159.992 28.112H157.388ZM153.636 33.656L157.752 24.948L159.992 28.112L157.528 33.656H153.636Z" fill="white"/>
<path fill-rule="evenodd" clip-rule="evenodd" d="M0.70092 11.8607C8.04663e-08 13.1412 0 14.6859 0 17.7753V19.8288C0 25.0948 1.60933e-07 27.728 1.58162 29.3639C3.16325 31 5.70883 31 10.8 31H16.2C21.2911 31 23.8368 31 25.4183 29.3639C27 27.728 27 25.0948 27 19.8288V17.7753C27 14.6859 27 13.1412 26.2991 11.8607C25.5982 10.5802 24.3177 9.78544 21.7566 8.19596L19.0566 6.52027C16.3493 4.84009 14.9957 4 13.5 4C12.0043 4 10.6507 4.84009 7.94344 6.52027L5.24344 8.19598C2.68238 9.78544 1.40184 10.5802 0.70092 11.8607ZM10.0529 22.0866C9.6037 21.7536 8.96958 21.8478 8.63659 22.2971C8.30361 22.7464 8.39784 23.3805 8.84708 23.7134C10.1598 24.6865 11.7653 25.2625 13.5 25.2625C15.2347 25.2625 16.8402 24.6865 18.1529 23.7134C18.6022 23.3805 18.6964 22.7464 18.3634 22.2971C18.0305 21.8478 17.3964 21.7536 16.9471 22.0866C15.9637 22.8154 14.777 23.2375 13.5 23.2375C12.223 23.2375 11.0363 22.8154 10.0529 22.0866Z" fill="white"/>
</svg>
